<svg version="1.2" xmlns="http://www.w3.org/2000/svg" viewBox="0 0 4000 4000" width="1000" height="1000">
	<title>4800_4_01</title>
	<style>
		.s0 { fill: #ffd243 } 
		.s1 { fill: #ff9d33 } 
		.s2 { fill: #ffffff } 
		.s3 { fill: #371a45 } 
		.s4 { fill: #26225b } 
		.s5 { fill: #293856 } 
		.s6 { fill: #21102b } 
	</style>
	<g id="Layer 1">
		<g id="&lt;Group&gt;">
			<g id="&lt;Group&gt;">
				<g id="&lt;Group&gt;">
					<g id="&lt;Group&gt;">
						<g id="&lt;Group&gt;">
							<path id="&lt;Path&gt;" class="s0" d="m668.2 2162.7c8.4 26.9 17.7 53.3 27.7 79.5 65.4 170.4 163.1 323.9 285.4 452.6 29.9 31.6 61.3 61.6 94.1 90 229.5 198.9 525.4 318.7 848.5 318.7 729.1 0 1320.2-610.2 1320.2-1363.1 0-197.9-40.8-385.9-114.3-555.7-110.6-255.4-295-469.2-525.3-612.5-23.4-14.6-47.3-28.5-71.7-41.5 159.2 208.7 253.8 469.4 253.8 752.3 0 86.3-8.9 170.6-25.7 252-113.4 550.6-591.5 968.1-1170.6 989-15.1 0.5-30.4 0.9-45.6 0.9-76 0-150.4-6.9-222.6-20-182.7-33-351.5-106.1-497.1-209.8-24.4-17.4-48.2-35.6-71.3-54.7 0 0-0.1-0.1-0.2-0.2-29.6-24.5-58.1-50.4-85.3-77.5z"/>
						</g>
						<g id="&lt;Group&gt;">
							<g id="&lt;Group&gt;">
								<path id="&lt;Path&gt;" class="s1" d="m1322.1 2504.9c72.2 13.1 146.6 20 222.6 20 15.2 0 30.5-0.4 45.6-0.9 579.1-20.9 1057.2-438.4 1170.6-989 93.5 194.4 110.6 419.5 15 617.5-112.7 233.2-368.4 389.5-627.3 383.6 37.7 75.4 12.5 174.1-51.3 229.3-63.8 55.2-158.8 67.4-238.3 39-79.4-28.4-142.8-93.6-178.5-170-73 20.2-151.3 20.6-224.4 1.2-3.7 66.4-17.7 132.3-41.4 194.4 203.2 70.3 442.8 91 723.3 28.8 52.5-11.6 101.9-26.7 149.6-41.3 9.5-2.8 80.7 24 172.1-22.5 68.3-34.8 77.6-90.5 117.8-117.1 555.3-367.4 581.1-1092.3 555.5-1452.2 52.2 146.5 80.7 304.8 80.7 470 0 752.8-591.1 1363.1-1320.3 1363.1-323 0-619-119.8-848.4-318.8h-0.1c-23.6-20.5-46.5-41.8-68.7-63.9-3.6-16.3-5.9-33-8.9-49.4-5.5-30.5-13.5-60.2-23.4-89.3-28.7-84.2-73.5-163.4-118.9-242.3 145.6 103.7 314.4 176.8 497.1 209.8z"/>
							</g>
						</g>
						<g id="&lt;Group&gt;" style="opacity: .6">
							<path id="&lt;Path&gt;" class="s2" d="m753.7 2240.4c221.3 215.1 519.7 346.9 848 346.9 682.4 0 1235.6-569.4 1235.6-1271.9 0-277.4-86.3-534.1-232.8-743.2-23.4-14.6-47.3-28.5-71.7-41.5 159.2 208.7 253.8 469.4 253.8 752.3 0 670.6-531.6 1217-1196.3 1241-15.1 0.5-30.4 0.9-45.6 0.9-76 0-150.4-6.9-222.6-20-213.4-38.5-407.8-131.7-568.4-264.5z"/>
						</g>
						<g id="&lt;Group&gt;">
							<path id="&lt;Path&gt;" class="s1" d="m695.9 2242.2c65.3 170.3 163.1 323.9 285.4 452.5-7-21.7-9.9-45.3-14-68-5.5-30.5-13.5-60.2-23.4-89.3-98.1-93.1-180.3-195.3-248-295.2z"/>
						</g>
						<g id="&lt;Group&gt;">
							<path id="&lt;Compound Path&gt;" class="s3" d="m1923.9 3125.9c-289.3 0-564.8-93.4-796.7-270.2-227.3-173.1-393.4-410.4-480.4-686.3-3.1-9.8 1-20.5 9.8-25.8 8.8-5.4 20.1-4 27.4 3.3 176.4 175.8 398.5 292 642.1 336 71.5 13 145 19.6 218.6 19.6 14.9 0 29.9-0.3 44.8-0.9 658.7-23.7 1174.7-559 1174.7-1218.6 0-269.6-86.2-525-249.2-738.8-6.4-8.3-6.1-20 0.7-28.1 6.9-8 18.4-10.1 27.7-5.1 214.5 115.2 395.2 288.5 522.7 500.9 131.1 218.4 200.4 470.3 200.4 728.5 0 370-139.6 717.8-393 979.5-253.6 261.8-590.9 406-949.6 406zm-1204.7-885.3c196.5 506.3 670.1 840.6 1204.7 840.6 715.6 0 1297.8-601.5 1297.8-1340.8 0-467-231.8-894.1-611.5-1138.2 130.3 203 198.7 436.3 198.7 680.8 0 329.6-126.1 641.6-355.1 878.5-228.5 236.3-534.8 373-862.7 384.8-15.3 0.6-31 0.9-46.4 0.9-76.2 0-152.4-6.8-226.6-20.3-222.7-40.2-428-138.6-598.9-286.3z"/>
						</g>
						<g id="&lt;Group&gt;">
							<path id="&lt;Path&gt;" class="s3" d="m3044.1 1729.5c-19.3 30.5-31.3 65.3-37.7 100.8-6.3 35.6-7.1 72.2-1.4 107.2 3 17.5 7.5 34.7 14.4 50.5 6.7 15.9 15.6 30.6 26.9 41.8 11.3 11.3 24.9 18.6 39.2 19.8 14.4 1.6 29.3-2.9 42.8-11.7 13.5-8.6 25.3-21 35.6-34.8 10.2-13.9 18.8-29.4 25.7-45.7 13.7-32.7 22-68.2 24.2-104.1 1.3-17.9 1-35.9-1-53.7-2-17.8-5.6-35.4-11.6-52.1-5.9-16.7-14-32.7-25.3-45.8-11.2-13.1-25.9-23.1-42.9-26.6h-0.1c-3.2-0.7-5.3-3.8-4.6-7.1 0.6-3 3.3-5 6.3-4.7 10.1 0.8 20.2 3.6 29.5 8.2 9.2 4.6 17.5 10.7 24.9 17.8 14.5 14.2 25.3 31.6 33.2 49.8 15.9 36.6 21.4 76.4 20.7 115.5-0.5 19.6-2.6 39.2-6.5 58.5-3.7 19.3-9.2 38.4-16.8 56.8-7.4 18.4-16.9 36.2-28.7 52.8-11.9 16.5-26.4 31.7-44.6 43.5-9 5.8-19.1 10.7-30 13.8-10.8 3-22.6 4.2-34.1 3-11.5-1.1-22.8-4.6-32.8-10-10.1-5.3-18.9-12.3-26.5-20-15.2-15.6-25.5-34-33.2-52.8-7.5-18.9-12.1-38.5-14.8-58.1-1.3-9.9-2.2-19.7-2.6-29.6-0.2-9.8-0.1-19.6 0.4-29.4 1.2-19.6 3.8-39 8.3-58.1 9-37.9 24.3-74.8 48.3-106 3.1-4 8.8-4.7 12.7-1.7 3.8 2.9 4.7 8.1 2.2 12.1z"/>
						</g>
						<g id="&lt;Group&gt;">
							<path id="&lt;Path&gt;" class="s4" d="m2375 2527.3c-67.9 27.8-115.5 94.7-120 163.7-2.1 34.3 6.4 69 26.4 95.3 9.8 13.2 22.3 24.4 36.4 32.8 14.1 8.3 29.8 14 46.2 16.7 33 5.1 67.9-2.2 98.4-18.1 15.2-8.2 29.3-18.6 41.9-30.6 12.4-12.2 23.4-26.1 32.4-41.1 17.5-30.2 27-65.6 24.6-100.7-2.4-35.1-17.2-69.2-43.2-94.5l-0.1-0.1c-3.8-3.7-3.9-9.8-0.2-13.6 3.4-3.5 8.9-3.9 12.7-1 16.4 12.5 30.4 28.4 40.7 46.6 10.4 18.2 17 38.5 20.2 59.2 3.2 20.9 2.1 42.1-1.6 62.7-3.9 20.6-10.6 40.9-20.6 59.4-10 18.4-22.2 35.8-36.8 51-14.9 15-31.7 28.2-50.2 38.8-18.4 10.7-38.8 18.1-59.9 22.3-21.1 4.3-43.1 5.2-64.8 2-43.6-6.1-84.3-31.2-110.2-66.9-13.2-17.8-21.8-38.5-26.9-59.5-4.9-21.2-6.3-42.9-3.9-64.1 4.6-42.4 23-82.3 50-113.6 26.8-31.5 62.9-55.1 102.3-65.2 5.3-1.4 10.6 1.8 11.9 7 1.3 4.8-1.3 9.7-5.7 11.5z"/>
						</g>
						<g id="&lt;Group&gt;">
							<path id="&lt;Path&gt;" class="s3" d="m2374.3 2525.2c-69.1 27.1-118.5 94.7-123.6 165.4-2.3 35.2 6.2 71.1 26.9 98.5 10.2 13.7 23.1 25.3 37.7 34 14.7 8.7 31 14.6 48 17.4 34.1 5.2 70.1-2.3 101.3-18.8 15.6-8.5 29.9-19.1 42.8-31.5 12.7-12.6 23.7-26.8 32.9-42.2 17.7-31 27.1-67.2 24.3-103.1-1.4-17.9-6-35.5-13.5-51.8-7.6-16.3-18.3-31.3-31.6-43.9l-0.1-0.1c-3-2.8-3.1-7.6-0.3-10.6 2.7-2.8 7-3.1 10-0.7 16 12.4 29.6 28.3 39.6 46.2 10.1 18 16.4 37.9 19.3 58.3 3.1 20.5 1.9 41.3-1.9 61.5-3.9 20.2-10.6 40.1-20.5 58.2-9.9 18.1-21.9 35.1-36.3 49.9-14.6 14.7-31.1 27.6-49.3 37.9-18 10.4-38 17.6-58.6 21.7-20.6 4.2-42.1 5-63.2 1.9-42.4-6-81.9-30.3-107.2-65-12.8-17.2-21.2-37.4-26.2-57.9-4.9-20.5-6.3-41.8-4.1-62.5 4.3-41.6 22.1-80.8 48.5-111.8 26.1-31.3 61.5-54.8 100.3-65.4 4.1-1.1 8.2 1.3 9.4 5.3 1 3.8-1.1 7.7-4.6 9.1z"/>
						</g>
						<g id="&lt;Group&gt;">
							<path id="&lt;Path&gt;" class="s3" d="m1708.7 2959.2c-17.8 1.3-35.2 3.6-51.2 9.2-7.9 2.7-15.7 5.8-22.2 10.1-6.5 4.2-12.3 9.1-15.4 14.2-3.3 5.2-3.3 9.9-2.1 14.5 1.4 4.7 5.1 9.8 10.5 14.4 10.9 9.1 25.9 16 41.6 20.1 15.7 4.4 32.3 6.3 48.8 6.3 16.4 0 32.9-2.2 47.6-7.3 14.5-5.1 27.1-14 28.8-24.6 1.1-5.4-0.6-12-4.7-18.4-4-6.4-10.1-12.3-16.7-17.8l-0.1-0.1c-2.7-2.2-3.1-6.2-0.9-8.8 1.8-2.2 4.9-2.9 7.3-1.8 8.9 3.9 17.5 9 25 16.6 3.7 3.8 7 8.4 9.5 13.7 2.5 5.3 4.1 11.4 4.1 17.7 0 3.2-0.5 6.3-1 9.5-1 2.9-1.7 6.1-3.2 8.8-1.4 2.7-2.7 5.5-4.5 7.8l-2.7 3.6c-0.9 1.1-1.9 2.1-2.9 3.2-8 8.2-17.2 13.7-26.6 18.2-9.3 4.5-19.1 7.2-28.9 9.3-9.8 2.1-19.6 3.1-29.5 3.5-19.7 0.5-39.3-1.6-58.5-7.2-9.5-2.7-19-6.3-28.1-11.1-9.1-4.7-17.9-10.4-25.9-18.1-7.9-7.6-15.3-17.8-17.9-30.9-2.9-13 1.3-27.6 8.9-36.9 7.6-9.5 16.9-15.5 26.3-19.7 9.4-4.3 19.1-6.8 28.7-8.4 19.2-3.1 38.3-2.2 56.6 1.5 2.4 0.5 4 2.9 3.5 5.3-0.4 2-2.1 3.4-4.1 3.6z"/>
						</g>
						<g id="&lt;Group&gt;">
							<path id="&lt;Path&gt;" class="s3" d="m1439.7 2728.7c-25.8 2.7-53-3.1-77.1-15.9-24.1-12.8-45.1-32.5-59.5-56.6-14.4-24.1-22.4-52.4-22.9-80.9-0.7-28.3 6.1-57.2 20-82.4 5.3-9.7 16.1-14.5 26.4-12.7 43.3 7.8 86.8 14.7 130.7 19 21.9 2.1 44 4 66 5.1 11.1 0.5 22.1 1.2 33.3 1.3l33.7 0.9h1.3c7.1 0.2 13 4.9 15.1 11.3 7.5 23.2 9.7 47.9 6.2 71.5-3.3 23.5-12 46.1-25.1 65.2l1.2-4.7v0.1l-0.1 1.5c-0.1 1.2-0.5 2.3-1.2 3.2-7.7 11.2-16.8 21.2-27.1 29.7-2.5 2.1-6.3 1.8-8.4-0.8-1.9-2.2-1.8-5.4 0-7.6 7.8-9.5 14.3-19.9 19.4-30.7l-1.2 4.7v-0.1c-0.1-1.1 0.1-2.2 0.5-3.2l0.7-1.5c8.8-18.4 13.3-38.4 13.7-58.2 0.2-19.8-3.5-39.3-11.4-56.8l16.4 11.4-33.6 2.1c-11.2 0.8-22.7 1.3-34.1 1.5-22.8 0.3-45.6 0.2-68.5-0.8-45.7-2.1-91.4-6.4-136.4-14.8l26.4-12.6c-9.7 17.8-15.2 37.9-15.9 58.6-0.7 20.5 3.6 41.3 12.6 60.3 8.8 19 22.3 36.3 39.2 50.4 16.9 14.1 37.5 24.5 60.6 31h0.1c3.1 0.9 4.9 4.1 4 7.2-0.6 2.4-2.7 4-5 4.3z"/>
						</g>
						<g id="&lt;Group&gt;">
							<path id="&lt;Path&gt;" class="s3" d="m2845.1 1044.6c-19.6 7.5-33.4 23.9-41.3 43-7.9 19.2-10.9 40.5-9.8 61.7 1.7 42.3 18.1 85 46 114.9 14.1 14.4 31.6 25.5 49.5 27.3 17.8 2 35.7-4.9 48.3-19.8 6.3-7.3 11.7-16 15.8-25.5 3.9-9.5 6.9-19.7 8.8-30.3 3.8-21.1 3.1-43.4-0.3-65.4l-0.1-0.2c-0.7-4.3 2.3-8.3 6.6-9 3.8-0.6 7.5 1.8 8.7 5.4 7.4 22.9 10.9 47.4 8.9 72.2-0.9 12.4-3.6 24.7-7.5 36.9-4.2 12.1-10.2 23.9-18.5 34.4-8.2 10.6-19 20-32 26-12.9 5.9-27.5 8.4-41.6 7.3-14.1-1.2-27.7-5.4-39.3-12.1-11.7-6.6-22.1-14.8-31.2-24-17.9-18.6-31.2-40.8-39.6-64.4l-3.2-8.8-2.6-9c-1.8-6-2.7-12.2-3.9-18.3-1.1-6.1-1.7-12.4-2.4-18.6-0.2-6.2-0.9-12.4-0.5-18.7 0-12.5 2-25 4.6-37.3 2.9-12.3 7.7-24.2 13.7-35.5 6.1-11.2 14.5-21.4 24.6-29.6 10.1-8.2 22.3-14 35-16 3.7-0.6 7.3 1.9 7.9 5.7 0.6 3.3-1.3 6.4-4.3 7.6z"/>
						</g>
						<g id="&lt;Group&gt;">
							<path id="&lt;Path&gt;" class="s3" d="m2876.1 2226.1c-12.6 9.3-19.2 23.5-21.1 38.5-1.1 7.5-1 15.2 0.1 22.9 1.1 7.6 2.8 15.2 5.6 22.5 5.2 14.6 13.6 28.2 24 39.3 5.1 5.6 10.9 10.5 17 14.5 6.2 3.9 12.6 7.4 19.2 9.2 13.2 3.8 26.2 2.1 36.3-5.2 5-3.6 9.3-8.7 12.5-14.8 3.4-6.1 5.5-13.2 6.7-20.6 0.4-1.9 0.5-3.7 0.6-5.7 0.2-1.9 0.4-3.8 0.3-5.7l0.1-5.8-0.4-5.9c-0.8-7.9-2.4-15.8-4.9-23.5-4.8-15.6-12.9-30.4-23.8-43.4v-0.1c-2.2-2.5-1.8-6.3 0.7-8.4 2.2-1.8 5.2-1.8 7.4-0.2 15.2 11.2 27.3 26.6 35.6 44 8.3 17.4 13.3 37.1 11.8 57.6-0.6 10.1-2.7 20.6-7.1 30.5-4.4 9.9-11.1 19.3-20.1 26.6-8.9 7.3-19.8 12.5-31.2 14.3-11.4 2-22.8 1-33.3-1.7-10.6-2.8-20.2-7.5-28.9-13.2-8.7-5.8-16.5-12.6-23.1-20.3-3.5-3.7-6.4-7.8-9.4-11.9-2.7-4.2-5.5-8.4-7.7-12.9-4.8-8.7-8.6-18-11.2-27.7-5.2-19.2-6.3-40-0.6-59.7 2.9-9.8 7.5-19.2 14-27.3 6.5-8 15.1-14.6 24.6-18.1 3.6-1.3 7.6 0.5 8.9 4.1 1.1 2.9 0 6.1-2.4 7.9z"/>
						</g>
						<g id="&lt;Group&gt;">
							<path id="&lt;Path&gt;" class="s3" d="m2062.1 3114.3c-8.2 0-15.3-5.9-16.6-14.2l-44.7-282c-1.5-9.1 4.8-17.7 13.9-19.2 9.2-1.4 17.8 4.8 19.2 14l44.7 282c1.5 9.1-4.7 17.7-13.9 19.2q-1.3 0.2-2.6 0.2z"/>
						</g>
						<g id="&lt;Group&gt;">
							<path id="&lt;Path&gt;" class="s0" d="m1993.7 3303.1l-37.4 171.9 130.2-116.5 150 89.6-15.8-36.7-53.8-124.9 130.2-116.5-173.1 16.6-41.8-97.1-27.8-64.4-37.4 171.8-38 3.6-133 12.9-2.2 0.2z"/>
						</g>
						<g id="&lt;Group&gt;" style="opacity: .2">
							<path id="&lt;Path&gt;" class="s4" d="m1979 3200.5l75.5 18.8 27.7-129.8-27.8-64.4-37.4 171.8z"/>
						</g>
						<g id="&lt;Group&gt;">
							<path id="&lt;Path&gt;" class="s1" d="m1993.7 3303.1l-37.4 171.9 130.2-116.5 150 89.6-15.8-36.7-132.6-116.6-58.7 48 5.2-68.4-188.6-61-2.2 0.2z"/>
						</g>
						<g id="&lt;Group&gt;">
							<path id="&lt;Compound Path&gt;" class="s3" d="m1956.3 3491.8c-2.9 0-5.8-0.8-8.5-2.3-6.3-3.7-9.5-11-7.9-18.1l34.9-160-139.6-83.4c-6.3-3.7-9.4-11-7.8-18.1 1.6-7.1 7.6-12.3 14.8-13l160.9-15.5 34.9-159.9c1.6-7.1 7.5-12.4 14.8-13.1 7.3-0.7 14.1 3.3 17 10l64.7 150.4 161-15.5c7.2-0.8 14 3.3 17 9.9 2.9 6.7 1.2 14.4-4.2 19.3l-121.2 108.4 64.8 150.5c2.8 6.7 1.1 14.5-4.4 19.3-5.5 4.8-13.4 5.5-19.7 1.8l-139.3-83.3-121 108.3c-3.2 2.8-7.2 4.3-11.2 4.3zm-60-266.4l106.1 63.3c6.2 3.7 9.3 11 7.8 18l-26.5 121.2 91.6-81.9c5.4-4.9 13.5-5.7 19.8-1.9l105.4 63-49-114c-2.9-6.6-1.2-14.3 4.2-19.1l92.1-82.4-122.3 11.7c-7.2 0.8-14.1-3.3-17-10l-48.8-113.6-26.4 120.8c-1.5 7.1-7.5 12.4-14.8 13.1zm120.7-28.4z"/>
						</g>
						<g id="&lt;Group&gt;">
							<path id="&lt;Path&gt;" class="s2" d="m1029.9 2477c-21 101-124.2 190.8-116.1 303.9 5.3 73.4 59.4 136.3 123.8 172 64.4 35.7 138.5 49 211 61.6 38.7 6.8 80.5 13.1 115.9-3.9 42.2-20.2 62.5-69.1 61.1-116.6-0.4-10.8-1.9-21.6-4.4-32-14-55.7-52.9-101.3-92-143.3 8.9-10.5 17.2-21.4 24.7-32.5 35.6-52.1 56-109.9 61.5-168 2.9-29.5 1.8-59-3-88 2.2 0.5 4.2 0.9 6.3 1.3 61.8 13.2 122.5 13 179.9 0.2 10.5-2.3 21-5 31.3-8.2 3.7 29.5 10.4 59 19.5 87.9 71.9 228.7 294.9 421.6 412.6 332.8 64.1-48.4 58.8-112.9 30.4-176.1-25.9-57.6-71.1-114-100.3-155.9-10.2-14.5-18.4-27.2-23.3-37.6-90.4-194-14-383.5-86-558.3-6.1-15-13.1-29.4-20.9-43.1-97.7-175.2-313.4-252.8-525.8-245.3-102.6 3.6-205.4 34.2-291.2 87.8-85.5 53.4-154 129.6-188.2 224.6-68.5 190.3-36.6 408.4 173.2 536.7z"/>
						</g>
						<g id="&lt;Group&gt;" style="opacity: .3">
							<path id="&lt;Path&gt;" class="s3" d="m1015.7 2521.6c-35.1 83.7-108.8 163.1-101.9 259.3 5.3 73.4 59.4 136.3 123.8 172 64.4 35.7 138.5 49 211 61.6 38.7 6.8 80.5 13.1 115.9-3.9 44.1-21.1 64.3-73.6 60.7-123-52.1 66.5-287.4 3.4-345.2-46.5-89.6-77.3 6.8-249.3 57.1-348.5 12.8-25.2 4.3-55.8-19.3-71.5-153.8-102.1-170.1-247.1-165.6-326.3 1.7-30.4 27.3-53.6 57.7-52.4 49.9 2 113.3-0.6 160.3-3.3 24 86.7 80 182.8 80 182.8 114.5 47.9 155.7 135.2 168.5 209.6 73.1 15.6 144.7 12.4 211.2-8 3.7 29.5 10.4 59 19.5 87.9l-32.1-233.1c-56.4-10.8-104.3-88-133.8-148.7-17.7-36.5 5.7-79.6 46-84.5l61.1-7.3c27 124.5 106.1 247.8 169 318.8 38 42.8 149.7 109.5 232.5 155.6-10.2-14.5-18.4-27.2-23.3-37.6-90.4-194-14-383.5-86-558.3-6.1-15-13.1-29.4-20.9-43.1l-563.6 27.9 53.3-114.4c14.6-31.3-2.8-68.2-36.2-77l-62-16.1c-6.7-1.8-13.8-2.3-20.8-1.4l-175.3 21.9c-8.1 1.1-16 3.8-23 8.4-80.6 53-144.8 126.7-177.6 217.8-64.8 180.1-39.7 385 140.8 515.2 20.8 15 28 42.5 18.2 66.1z"/>
						</g>
						<g id="&lt;Group&gt;">
							<path id="&lt;Compound Path&gt;" class="s3" d="m1310.3 3043.8c-23.6 0-46.4-3.9-65.5-7.2-69.9-12.2-149.2-26-218-64.2-78.1-43.3-130-116.1-135.3-189.9-5.3-72.9 30-134.4 64.1-194 19.9-34.8 38.8-67.8 48.7-101.2-94.9-62.2-159.4-148.1-186.9-249.5-25.8-94.8-19.5-200.3 18.2-305.1 34.3-95.3 102.7-177 197.9-236.2 88-54.9 195.2-87.2 301.8-91q0 0 0 0c123.1-4.3 240 18.7 338.1 66.4 108.8 52.9 188.3 134.4 230.1 235.9 35.6 86.3 36.6 176.6 37.6 264 1.1 95.9 2.2 195.1 48 293.3 6.9 14.8 22.8 36.7 41.2 62.1 64.7 89.1 173.1 238.3 45.2 334.9-42.6 32.1-97.9 35.3-159.9 9.2-122.4-51.6-269.1-224.2-304-419.5-56.2 13.6-114.2 15.6-173.3 6.2 7 91.3-21.2 183.7-79.6 259.8 35 38.8 70.4 84.1 84.2 138.8 15.3 61.1-3.5 142.9-68.7 174.1-20.6 9.9-42.6 13.1-63.9 13.1zm26.6-1393.5c-210 7.3-398.8 129.7-459.1 297.6-75.7 210.3-14.5 401 163.8 510 8 4.9 12.1 14.4 10.2 23.6-9.4 45.5-33.8 88.1-57.4 129.2-32.2 56.2-62.6 109.3-58.3 168.6 5.1 70.4 61.4 125.7 112.4 154 62.2 34.5 137.5 47.6 203.9 59.2 39.4 6.8 74.3 11.4 102.5-2.1 42.1-20.2 55.8-78.4 44.6-122.9-12.9-51.2-49.9-94-86.7-133.5-7.7-8.3-8-21.1-0.7-29.7 65.5-77.3 94-175.9 78.3-270.5-1.3-7.3 1.3-14.8 6.7-19.9 5.4-5.2 13-7.2 20.3-5.6 70.8 16.1 140.1 14.1 205.9-6.2 6.3-1.9 13.2-0.9 18.7 2.6 5.5 3.6 9.2 9.5 10.1 16 23.3 183.9 164.1 360.1 280.9 409.3 32.4 13.7 78.7 24.1 115.5-3.6 85.8-64.8 23.2-166.1-54.4-272.9-19.8-27.3-36.8-50.8-45.6-69.5-49.8-106.9-51-211-52.2-311.7-1-87-1.9-169.1-34.2-247.5-87.7-212.9-328.7-281.5-525.2-274.5z"/>
						</g>
						<g id="&lt;Group&gt;">
							<path id="&lt;Path&gt;" class="s2" d="m790.2 1769.5c0.1 11.6 1 23.8 2.5 36.2 6.5 52.5 25.8 108.4 61.1 135.4 46.7 35.9 492.3 25 704.9 11.5h0.1c55.3-3.5 94.8-7.3 107.4-10.3 21.6-5.4 67.6-67.7 109.6-150.6 35.6-70.3 68.3-155.5 80.4-233.2 13.9-88.4 1.2-167-63.8-203-91.5-50.5-603.6-39.9-704.6 7.1-7.9 3.7-16.3 8.6-24.9 14.5 0 0 0 0-0.1 0-26.9 18.4-57.2 46.8-87.4 79.6 0 0 0 0 0 0.1-1.4 1.4-2.8 2.9-4.1 4.4-83.5 91.7-165.5 215.3-175.6 252.9-4 14.6-5.9 34-5.5 55.4z"/>
						</g>
						<g id="&lt;Group&gt;">
							<path id="&lt;Compound Path&gt;" class="s3" d="m1146.9 1987.8q-1.4 0-2.9 0c-266.4-0.2-292.6-20.3-303.8-28.9-51-39-65.7-118.2-69.7-150.4-4.7-37.7-3.4-74.2 3.6-100.2 16.2-60.7 196.6-315.9 304.2-366 60.5-28.1 234.4-40.3 365-42.2 67.5-1 292.7-1.3 359.9 35.9 44.7 24.7 94.3 82 76.9 214.2-10.3 77.6-43.6 174.3-91.4 265.3-17 32.2-75.4 138.1-117.1 148.5-14 3.4-51.4 7.1-111.3 10.9l-0.9 0.1c-93.4 5.9-256.8 12.8-412.5 12.8zm332.9-642.9c-158.8 0-329.3 13.2-382.6 38-93.7 43.6-265.7 283.9-279.9 337-5.5 20.4-6.4 51.4-2.4 83v0.1c6.9 55.4 26.5 100.4 52.5 120.4 4.7 3.2 40.8 19.6 279.3 19.6q0 0 0.1 0c155.2 0 318.1-6.8 410.5-12.7l0.8-0.1c77.2-4.9 97.5-8.5 102.3-9.6 33.8-14.4 168.1-237.1 177.9-403.6 4.2-70.9-14.9-118.7-56.8-141.9-36.9-20.4-165-30.2-301.7-30.2z"/>
						</g>
						<g id="&lt;Group&gt;" style="opacity: .3">
							<path id="&lt;Path&gt;" class="s3" d="m853.8 1942.2c46.7 35.9 492.3 25 704.9 11.5h0.1c26.1-5.3 52-12.3 73.2-28 36.8-27.2 52.4-78 42.2-122.6-10.3-44.6-43.9-82-84.9-102.1-43.4-21.2-93.1-24.4-141.3-26.1-167.8-6.1-335.9 0.5-503 16.8-36.8 3.6-75.6 8.3-105 30.6-81.2 61.5-21.5 192.8 13.8 219.9z"/>
						</g>
						<g id="&lt;Group&gt;">
							<path id="&lt;Compound Path&gt;" class="s3" d="m1146.9 1987.8q-1.4 0-2.9 0c-266.4-0.2-292.6-20.3-303.8-28.9-30.1-23-63.4-90.6-63.2-150.7 0.1-44.1 17.2-80.4 49.5-104.8 33.1-25.1 73.9-30.9 116.3-35 175.2-17.1 345.4-22.8 506-17 52.5 1.9 103.5 5.6 150.3 28.4 49.3 24.2 85.5 68 96.9 117.2 12.7 55.4-7.7 113.9-50.7 145.6-24.9 18.5-54.2 26.3-82 31.9l-2.2 0.5h-1.7c-93.4 5.9-256.8 12.8-412.5 12.8zm-279.6-64.5c5 3.4 41.3 19.7 279.4 19.7q0 0 0.1 0c154.5 0 316.6-6.8 409.1-12.6 22.4-4.6 45.3-10.8 62.8-23.7 28.5-21.1 42.3-62 33.7-99.7-8.4-36.2-35.7-68.7-73-87-38.9-19-84.7-22.1-132.2-23.9-158.6-5.7-326.8-0.1-500 16.8-37.2 3.6-69.9 8.1-93.7 26.1-21 16-31.7 39.3-31.8 69.3-0.1 51.6 30.1 103 45.6 115z"/>
						</g>
						<g id="&lt;Group&gt;">
							<path id="&lt;Path&gt;" class="s3" d="m1606.8 2425.6c-3.8-21.9-6.1-43.4-7.8-65.3-1.8-21.8-2.7-43.6-3-65.5-0.3-22 0.3-43.9 2.5-66 1.2-11 2.3-21.9 3.9-32.9 0.8-5.5 1.4-11 2.3-16.5l1.4-8.2 0.7-4.1c0.2-1.4 0.4-2.8 1.6-4.1 5.1-5.6 13.7-6 19.3-0.9q1.1 0.9 2 2.1l0.3 0.5c1 1.4 1.1 2.7 1.1 4.1l0.2 4 0.4 7.9c0.3 5.3 0.8 10.7 1.2 16 0.8 10.6 2.1 21.3 3.2 31.9 2.3 21.3 4.5 42.6 6.2 63.9 1.7 21.4 3.7 42.7 5.2 64.1 1.6 21.3 3.1 42.9 3.8 64.1v0.2c0.4 12.4-9.2 22.8-21.6 23.2-11.3 0.4-21-7.7-22.9-18.5z"/>
						</g>
						<g id="&lt;Group&gt;">
							<path id="&lt;Path&gt;" class="s3" d="m1391.2 2436.9l-0.8-3.3c-0.3-1.2-0.7-2.5-1.1-3.8q-1-3.9-2.3-7.9c-1.5-5.4-3.5-10.7-5.4-16-4-10.6-8.3-21.2-13.4-31.4-5-10.3-10.4-20.4-16.5-30.1l-9.2-14.6c-3.4-4.7-6.9-9.3-10.2-14l-2.5-3.6-2.8-3.3-5.6-6.7c-3.6-4.5-7.3-9-11.5-13.1l-12-12.8-13-12-6.6-6c-2.1-2-4.6-3.7-6.9-5.6l-13.9-11.3-3.5-2.8-3.8-2.6-7.4-5.2q-7.4-5.2-14.8-10.7l-0.6-0.5c-3.8-2.8-4.6-8.2-1.8-12 2.3-3.2 6.4-4.3 9.9-3q9 3.3 17.9 6.8l8.9 3.6 4.5 1.9 4.3 2.1 17.1 9c2.9 1.6 5.8 2.9 8.5 4.8l8.1 5.3c5.4 3.6 11 7.1 16.3 10.9l15.3 12.3c2.5 2.1 5.2 4 7.5 6.3l7.1 6.8 7.1 6.9 3.5 3.5 3.3 3.7c18.1 19.3 33.2 41.4 45.4 65 6.3 11.8 11.3 24.2 15.8 36.8 1.9 6.4 4.1 12.8 5.6 19.4q1.3 5 2.2 10.1c0.3 1.7 0.6 3.4 0.9 5.2 0.3 1.9 0.5 3.5 0.8 5.9 1.3 12.3-7.5 23.3-19.7 24.7-11.2 1.2-21.4-6-24.1-16.6z"/>
						</g>
						<g id="&lt;Group&gt;">
							<path id="&lt;Path&gt;" class="s3" d="m1414 2567.6c-4.6 0-9.1-1.9-12.5-5.5-44.9-50-108.9-84.1-175.5-93.5-66.6-9.4-137.5 5.6-194.5 41.1-7.9 4.9-18.3 2.5-23.2-5.4-4.9-7.8-2.5-18.2 5.4-23.1 63.7-39.6 142.7-56.3 217-45.8 74.3 10.5 145.6 48.5 195.8 104.2 6.2 6.9 5.6 17.5-1.3 23.7-3.2 2.9-7.2 4.3-11.2 4.3z"/>
						</g>
						<g id="&lt;Group&gt;">
							<path id="&lt;Path&gt;" class="s3" d="m1779.6 2463.6q-0.6 0-1.1 0c-62-0.2-112.2-16.5-158.1-51.1-7.4-5.6-8.9-16.1-3.3-23.5 5.6-7.4 16.1-8.9 23.5-3.3 39.8 30 83.6 44.1 138 44.3 52.3 0.2 104-16.8 145.9-47.9 7.5-5.5 18-3.9 23.5 3.5 5.5 7.5 4 18-3.5 23.5-47.4 35.2-105.9 54.5-164.9 54.5z"/>
						</g>
						<g id="&lt;Group&gt;">
							<path id="&lt;Path&gt;" class="s2" d="m1198.3 1792.8c1.1 35.3 4 70.5 8.9 105.3 29.9 214.9 130.6 419.1 284.7 572.3 12 11.9 27.4 18.1 43 18.7 17.3 0.6 34.8-5.6 48-18.9 25.1-25.2 25-65.9-0.2-91-25.3-25.2-49-52-70.9-80.1-113.1-145.1-179.4-325.9-184.8-510.2-1.1-35.5-30.9-63.4-66.3-62.3-35.5 1-63.5 30.7-62.4 66.2z"/>
						</g>
						<g id="&lt;Group&gt;" style="opacity: .3">
							<path id="&lt;Path&gt;" class="s3" d="m1207.2 1898.1c29.9 214.9 130.6 419.1 284.7 572.3 12 11.9 27.4 18.1 43 18.7 17.3 0.6 34.8-5.6 48-18.9 25.1-25.2 25-65.9-0.2-91-25.3-25.2-49-52-70.9-80.1-170-57.6-259.6-251.6-304.6-401z"/>
						</g>
						<g id="&lt;Group&gt;">
							<path id="&lt;Compound Path&gt;" class="s3" d="m1537.3 2505.9q-1.6 0-3.1 0c-20.4-0.8-39.6-9.2-54.1-23.6-182.1-181.1-291-432.3-298.6-689-1.3-44.8 34-82.2 78.7-83.5 21.7-0.6 42.2 7.2 58 22 15.8 14.9 24.9 35 25.5 56.7 6.4 215.6 97.8 426.6 250.8 578.8 15.4 15.3 23.9 35.6 23.9 57.3 0.1 21.7-8.3 42-23.6 57.4-15.2 15.3-36 23.9-57.5 23.9zm-1.8-33.6c13.5 0.5 26-4.4 35.5-14 9-9 13.9-20.9 13.9-33.6-0.1-12.7-5.1-24.7-14.1-33.6-159-158.2-254-377.5-260.6-601.6-0.4-12.7-5.7-24.5-15-33.2-9.2-8.8-21.4-13.4-34-13-26.2 0.8-46.9 22.8-46.1 49 7.3 248.2 112.6 491.1 288.7 666.2 8.5 8.5 19.7 13.4 31.7 13.8z"/>
						</g>
						<g id="&lt;Group&gt;">
							<path id="&lt;Path&gt;" class="s3" d="m1445.7 2430.8c-6.3 0-12.1-4.3-13.6-10.8-1.8-7.5 2.8-15 10.4-16.8 36.8-8.8 69.1-35.8 84.3-70.5 3.1-7 11.4-10.2 18.5-7.1 7 3.1 10.2 11.3 7.1 18.4-18.6 42.5-58.3 75.6-103.4 86.4q-1.7 0.4-3.3 0.4z"/>
						</g>
						<g id="&lt;Group&gt;">
							<path id="&lt;Path&gt;" class="s3" d="m1364.8 2312.2c-7.5 0-13.7-6-14-13.5-0.3-7.7 5.7-14.2 13.4-14.5 37.1-1.5 72.6-21.7 92.9-52.7 4.2-6.5 12.8-8.3 19.3-4.1 6.5 4.2 8.3 12.9 4.1 19.3-25.1 38.6-69.2 63.6-115.2 65.4q-0.3 0-0.5 0.1z"/>
						</g>
						<g id="&lt;Group&gt;">
							<path id="&lt;Path&gt;" class="s3" d="m1305.8 2195.1q-5.3 0-10.7-0.5c-7.7-0.7-13.3-7.5-12.6-15.1 0.6-7.7 7.5-13.4 15.1-12.7 36 3.2 73.5-14.8 93.3-44.9 4.3-6.5 13-8.3 19.4-4 6.5 4.2 8.2 12.9 4 19.4-23.4 35.4-66 57.8-108.5 57.8z"/>
						</g>
						<g id="&lt;Group&gt;">
							<path id="&lt;Path&gt;" class="s3" d="m1243.2 2068.4c-3.7 0-7.4-1.4-10.1-4.3-5.4-5.5-5.2-14.4 0.4-19.8 33.4-32.2 80.9-48.1 127-42.6 7.7 1 13.2 7.9 12.3 15.6-1 7.7-7.9 13.1-15.6 12.2-37.3-4.5-77.3 8.9-104.3 35-2.7 2.6-6.2 3.9-9.7 3.9z"/>
						</g>
						<g id="&lt;Group&gt;">
							<path id="&lt;Path&gt;" class="s3" d="m1211.8 1938.8c-3.5 0-7.1-1.3-9.8-4-5.5-5.4-5.6-14.3-0.2-19.8 33.8-34.4 88.7-46 133.6-28.3 7.2 2.8 10.7 11 7.8 18.2-2.8 7.1-10.9 10.6-18.1 7.8-34.7-13.7-77.2-4.7-103.3 21.9-2.7 2.8-6.4 4.2-10 4.2z"/>
						</g>
						<g id="&lt;Group&gt;" style="opacity: .3">
							<path id="&lt;Path&gt;" class="s3" d="m1598.6 2431.7c10.5-2.3 21-5 31.3-8.2 3.7 29.5 10.4 59 19.5 87.9 71.9 228.7 294.9 421.6 412.6 332.8 64.1-48.4 58.8-112.9 30.4-176.1-25.3 41.8-66.7 66.1-119.1 68.1-181.5 7.3-355.9-497.1-355.9-497.1 0 0-9.1 88.9-18.8 192.6z"/>
						</g>
						<g id="&lt;Group&gt;">
							<path id="&lt;Path&gt;" class="s4" d="m1579.7 2649.8c10.7-18.5 17.6-39.6 19.4-62.5 1.8-22.2-1.4-43.7-8.8-63.3h-0.2c-4 45-7.7 88.9-10.4 125.8z"/>
						</g>
						<g id="&lt;Group&gt;">
							<path id="&lt;Path&gt;" class="s4" d="m1322.6 1669.2c0 0-37.1-2.2-91.6-2.5 27.8 1.8 58.2 2.6 91.6 2.5z"/>
						</g>
						<g id="&lt;Group&gt;">
							<g id="&lt;Group&gt;">
								<g id="&lt;Group&gt;">
									<path id="&lt;Path&gt;" class="s2" d="m2539.8 2377.5c-672.4 340.6-1178.7-576.1-570.2-971.9 680-365 1202.4 583.1 570.2 971.9z"/>
								</g>
								<g id="&lt;Group&gt;">
									<path id="&lt;Path&gt;" class="s2" d="m2539.8 2377.5c-672.4 340.6-1178.7-576.1-570.2-971.9 680-365 1202.4 583.1 570.2 971.9z"/>
								</g>
								<g id="&lt;Group&gt;">
									<path id="&lt;Path&gt;" class="s2" d="m2539.8 2377.5c-672.4 340.6-1178.7-576.1-570.2-971.9 680-365 1202.4 583.1 570.2 971.9z"/>
								</g>
								<g id="&lt;Group&gt;">
									<path id="&lt;Compound Path&gt;" class="s3" d="m1976.1 1416.5c-309.7 201.8-315.3 528.8-189.3 747.4 128.9 223.7 409.8 373 746.8 202.6 321.8-198.3 329.8-529.7 200.9-753.8-127.7-221.9-419.4-377.8-758.4-196.2zm272.2 1048.1c-57.9 0-114.7-9-169.4-27.1-130.4-43.1-241.9-135.8-314.1-261-72.3-125.5-97.1-269.4-70-405.2 30.3-151.8 123-282 267.9-376.3l0.9-0.5c160.2-86 323.9-106.1 473.4-58.2 132.5 42.6 246 136.2 319.4 263.8 73.5 127.9 98.1 274 69.3 411.4-32.3 154-128.9 284.3-279.3 376.8l-0.9 0.5c-99.4 50.3-200 75.8-297.2 75.8zm291.5-87.1z"/>
								</g>
								<g id="&lt;Group&gt;" style="opacity: .3">
									<path id="&lt;Path&gt;" class="s3" d="m2539.8 2377.5c-575.6 304.3-1106.4-387.4-700.4-863.6-75.9 189.5-21.6 233.4 13.1 376.3 94.8 457.1 657.3 521.8 928.8 213.8-48.5 117.2-134.7 212.5-241.5 273.5z"/>
								</g>
								<g id="&lt;Group&gt;">
									<path id="&lt;Compound Path&gt;" class="s5" d="m2248.3 2469.7c-58.5 0-115.8-9.1-171-27.4-131.6-43.5-244.1-137-316.9-263.2-72.9-126.6-98-271.7-70.6-408.8 30.6-153.2 124-284.5 270.2-379.5l1.2-0.8c161.5-86.7 326.5-106.9 477.3-58.5 133.8 42.9 248.3 137.4 322.3 266.1 74.1 128.9 99 276.3 69.9 414.9-32.6 155.4-130 286.8-281.6 380.1l-1.3 0.7c-100.2 50.8-201.5 76.4-299.5 76.4zm-269.6-1048.8c-306.8 200-312.3 523.9-187.5 740.5 127.7 221.5 406 369.4 739.9 200.6 318.8-196.4 326.6-524.7 198.9-746.7-126.4-219.8-415.4-374.3-751.3-194.4zm561.1 956.6z"/>
								</g>
								<g id="&lt;Group&gt;">
									<path id="&lt;Compound Path&gt;" class="s3" d="m2248.3 2469.7c-58.5 0-115.8-9.1-171-27.4-131.6-43.5-244.1-137-316.9-263.2-72.9-126.6-98-271.7-70.6-408.8 30.6-153.2 124-284.5 270.2-379.5l1.2-0.8c161.5-86.7 326.5-106.9 477.3-58.5 133.8 42.9 248.3 137.4 322.3 266.1 74.1 128.9 99 276.3 69.9 414.9-32.6 155.4-130 286.8-281.6 380.1l-1.3 0.7c-100.2 50.8-201.5 76.4-299.5 76.4zm-269.6-1048.8c-306.8 200-312.3 523.9-187.5 740.5 127.7 221.5 406 369.4 739.9 200.6 318.8-196.4 326.6-524.7 198.9-746.7-126.4-219.8-415.4-374.3-751.3-194.4zm561.1 956.6z"/>
								</g>
								<g id="&lt;Group&gt;">
									<path id="&lt;Path&gt;" class="s3" d="m2406.3 2432.4c-661.6 16.4-760.6-800-195.2-926.6 641.9-103.4 837 723.7 195.2 926.6z"/>
								</g>
								<g id="&lt;Group&gt;">
									<path id="&lt;Path&gt;" class="s6" d="m2730.1 2164.2c-288.9 523.7-1060.4 151-874.9-371.2 82.8 414.6 594 546 874.9 371.2z"/>
								</g>
								<g id="&lt;Group&gt;">
									<path id="&lt;Compound Path&gt;" class="s3" d="m2262.3 2470.8c-40.6 0-80.4-4.9-119.2-14.9-113.5-29.2-214.4-101.5-284-203.3-71.8-105.1-104.8-231.7-92.9-356.3 13.1-137.5 79.1-260.3 190.9-355.3 118.6-95.5 279.4-137 441.5-113.9 162.7 23.1 306.3 108.3 394 233.7l0.9 1.3 0.6 1.3c133.2 282.6-19.6 605.4-245.8 729.6l-0.1 0.1c-95.6 51.6-192.6 77.7-285.9 77.7zm48.4-1014.5c-123.1 0-240.5 39.1-331 112-226.3 192.3-217.3 479.8-91.3 664.3 109.6 160.4 343.7 290.6 642.9 129.3 211.7-116.2 354.9-417.8 231.4-682-82.2-116.7-216.6-196.1-369.1-217.7-27.7-4-55.5-5.9-82.9-5.9zm229.1 921.2z"/>
								</g>
								<g id="&lt;Group&gt;">
									<path id="&lt;Compound Path&gt;" class="s3" d="m2386.9 2447.7c-153.8 0-287.8-45.2-388.4-131.3-93.2-79.9-152.9-190.9-167.9-312.8-13.9-112.5 12-224.2 72.8-314.7 67.2-99.8 172.4-168.2 304.4-197.8l0.9-0.2c151.9-24.4 290 0.9 399.4 73.1 98.3 65 167.6 164.6 195.1 280.6 28.2 118.6 9.8 242-51.7 347.5-68.7 117.8-186.5 205.9-340.7 254.6l-2 0.7h-2.2q-9.9 0.3-19.7 0.3zm19.4-15.3zm-192.4-911.9c-277.3 62.3-377.3 285.7-353.5 479.4 26.3 213.5 204.6 425.2 543.4 417.6 322.3-102.8 417.9-365.3 370.3-566-47.9-201.8-239.7-382.4-560.2-331z"/>
								</g>
								<g id="&lt;Group&gt;">
									<path id="&lt;Path&gt;" class="s2" d="m1646.4 1678.2c-96.7 247.5 143.3 365.3 259.4 138.3 110.9-255.8-145.6-381.7-259.4-138.3z"/>
								</g>
								<g id="&lt;Group&gt;" style="opacity: .3">
									<path id="&lt;Path&gt;" class="s3" d="m1698.4 1927.3c71.7 35.8 170.6-20.2 212.9-123.1-100.9 75.6-112-150.4-92.4-202.1-204.2-56.7-253.5 262.2-120.5 325.2z"/>
								</g>
								<g id="&lt;Group&gt;">
									<path id="&lt;Compound Path&gt;" class="s3" d="m1748.9 1955.6c-19.4 0-37.9-4.1-54.6-11.6-69.9-31.5-119.9-130.1-64.4-272.3l0.5-1c62-132.7 163.8-160 232.1-129.2 75.6 34.1 120.4 141.9 59.6 282l-0.5 1c-47.8 93.6-114.2 131.1-172.7 131.1zm-86.2-270.4c-46.8 120.3-8.9 201.7 46.1 226.4 51.9 23.4 127.9 0.6 181-102.7 51.3-118.8 17.8-208.2-41.9-235.1-52.9-23.8-133.3 0.9-185.2 111.4z"/>
								</g>
								<g id="&lt;Group&gt;">
									<path id="&lt;Path&gt;" class="s2" d="m1630.2 1685.8c-78.2 200.7 100.1 291.9 194.1 108.3 91.8-209.1-102-308.1-194.1-108.3z"/>
								</g>
								<g id="&lt;Group&gt;">
									<path id="&lt;Compound Path&gt;" class="s3" d="m1700.5 1911.2c-14.3 0-27.8-3-40.1-8.5-54.8-24.6-92.8-105-46.7-223.3l0.4-1c50.7-110 131.2-134.3 184.5-110.4 59.9 27 93.5 115.7 41.9 233.3l-0.4 0.9c-39.8 77.8-93.4 109-139.6 109zm-54-218.5c-35.7 92.2-12.8 159.1 28.4 177.6 36.6 16.4 91.9-3.1 133.4-83.8 42-96.1 19.6-166.4-24.3-186.1-37.8-17.1-96.9 4.6-137.5 92.3z"/>
								</g>
								<g id="&lt;Group&gt;" style="opacity: .5">
									<path id="&lt;Path&gt;" class="s2" d="m2007.2 1742.4c-27.1 108.5 95.8 141.3 135.1 51.4 43.1-116.2-101.2-157.1-135.1-51.4z"/>
								</g>
								<g id="&lt;Group&gt;" style="opacity: .5">
									<path id="&lt;Path&gt;" class="s2" d="m1980 1921.6c-8 42.1 45.5 57.5 58.4 12.5 8-42.1-45.5-57.5-58.4-12.5z"/>
								</g>
								<g id="&lt;Group&gt;" style="opacity: .5">
									<path id="&lt;Path&gt;" class="s2" d="m2654.1 2163.2c265.4-318.4-74-577.5-228.7-567.1 225.3 152.8 244.8 358.2 228.7 567.1z"/>
								</g>
								<g id="&lt;Group&gt;" style="opacity: .3">
									<path id="&lt;Path&gt;" class="s3" d="m1809.3 1841.2c18.4-24 30.3-53.2 35.6-83.2-105.2 105.4-198.5-22.4-175.6-128.5-134.7 167.9 2.4 362.8 140 211.7z"/>
								</g>
							</g>
						</g>
					</g>
					<g id="&lt;Group&gt;">
						<g id="&lt;Group&gt;">
							<g id="&lt;Group&gt;">
								<path id="&lt;Compound Path&gt;" class="s2" d="m1902.5 1107.4l-183.5 40.2-8-36.9 72.1-171.6-102 22.4-11.2-51.1 179.7-39.4 8 36.5-73.1 172.2 106.8-23.4z"/>
							</g>
						</g>
						<g id="&lt;Group&gt;">
							<g id="&lt;Group&gt;">
								<path id="&lt;Compound Path&gt;" class="s2" d="m2064.5 801.7l-130 14-2.8-26.1 62.8-113.4-72.3 7.8-3.8-36.1 127.3-13.7 2.8 25.8-63.6 113.7 75.7-8.2z"/>
							</g>
						</g>
						<g id="&lt;Group&gt;">
							<g id="&lt;Group&gt;">
								<path id="&lt;Compound Path&gt;" class="s2" d="m2344.3 923.7l-149.6 16.1-3.2-30.1 72.4-130.4-83.2 9-4.5-41.6 146.6-15.8 3.2 29.8-73.2 130.7 87.1-9.3z"/>
							</g>
						</g>
						<g id="&lt;Group&gt;">
							<g id="&lt;Group&gt;">
								<path id="&lt;Compound Path&gt;" class="s2" d="m2107.8 1162.3l-77.8 8.3-1.7-15.6 37.6-67.8-43.2 4.7-2.4-21.7 76.3-8.2 1.6 15.5-38 68 45.2-4.9z"/>
							</g>
						</g>
					</g>
				</g>
			</g>
		</g>
	</g>
</svg>